<?xml version="1.0" standalone="no"?>
<!DOCTYPE svg PUBLIC "-//W3C//DTD SVG 20010904//EN"
 "http://www.w3.org/TR/2001/REC-SVG-20010904/DTD/svg10.dtd">
<svg version="1.0" xmlns="http://www.w3.org/2000/svg"
 width="16.000000pt" height="16.000000pt" viewBox="0 0 16.000000 16.000000"
 preserveAspectRatio="xMidYMid meet">

<g transform="translate(0.000000,16.000000) scale(0.100000,-0.100000)"
fill="#000000" stroke="none">
<path d="M7 154 c-4 -4 -7 -28 -7 -53 0 -43 1 -44 18 -28 15 16 15 19 2 27
-13 8 -12 10 3 10 9 0 17 -7 17 -16 0 -8 5 -12 10 -9 6 4 8 11 4 16 -4 7 5 9
22 7 18 -2 28 -8 26 -16 -1 -8 3 -12 10 -9 7 2 12 10 10 16 -1 6 5 11 13 11
10 0 14 -8 11 -22 -4 -31 -53 -34 -62 -5 -6 20 -7 19 -19 -4 -8 -13 -15 -23
-17 -22 -2 1 -13 0 -26 -4 -16 -4 -22 -12 -20 -27 3 -19 9 -21 78 -21 l75 0 0
75 0 75 -70 3 c-39 1 -74 0 -78 -4z"/>
</g>
</svg>
